# xmcd
#
# Track frame offsets:
#	150
#	14890
#	32067
#	48637
#	61660
#	76742
#	91477
#	110147
#	130642
#	146800
#	168885
#	184565
#
# Disc length: 2829 seconds
#
# Revision: 1
# Processed by: cddbd v1.5.2PL0 Copyright (c) Steve Scherf et al.
# Submitted via: EZCDAudioConverter 7.0.8.1
#
DISCID=9e0b0b0c
DTITLE=Guitar Slingers
DYEAR=1995
DGENRE=
TTITLE0=Dreams
TTITLE1=Breakway
TTITLE2=Baby It's Alright
TTITLE3=Hard To Handle
TTITLE4=Hold Me Now
TTITLE5=Like A Dog For The Bone
TTITLE6=Bad Case Of Loving You
TTITLE7=Rollercoaster
TTITLE8=Be Yourself
TTITLE9=This Is Forever
TTITLE10=Full Moon
TTITLE11=Love Sometimes
EXTD=
EXTT0=
EXTT1=
EXTT2=
EXTT3=
EXTT4=
EXTT5=
EXTT6=
EXTT7=
EXTT8=
EXTT9=
EXTT10=
EXTT11=
PLAYORDER=
